<?xml version="1.0" encoding="UTF-8" standalone="no"?>
<!-- Created with Inkscape (http://www.inkscape.org/) -->

<svg
   xmlns:dc="http://purl.org/dc/elements/1.1/"
   xmlns:cc="http://creativecommons.org/ns#"
   xmlns:rdf="http://www.w3.org/1999/02/22-rdf-syntax-ns#"
   xmlns:svg="http://www.w3.org/2000/svg"
   xmlns="http://www.w3.org/2000/svg"
   xmlns:sodipodi="http://sodipodi.sourceforge.net/DTD/sodipodi-0.dtd"
   xmlns:inkscape="http://www.inkscape.org/namespaces/inkscape"
   width="97.179482mm"
   height="45.913349mm"
   viewBox="0 0 97.179482 45.913349"
   version="1.1"
   id="svg2932"
   inkscape:version="0.92.3 (2405546, 2018-03-11)"
   sodipodi:docname="logo.svg">
  <defs
     id="defs2926" />
  <sodipodi:namedview
     id="base"
     pagecolor="#ffffff"
     bordercolor="#666666"
     borderopacity="1.0"
     inkscape:pageopacity="0.0"
     inkscape:pageshadow="2"
     inkscape:zoom="0.26682232"
     inkscape:cx="69.629287"
     inkscape:cy="131.52164"
     inkscape:document-units="mm"
     inkscape:current-layer="layer1"
     showgrid="false"
     inkscape:window-width="1366"
     inkscape:window-height="713"
     inkscape:window-x="0"
     inkscape:window-y="27"
     inkscape:window-maximized="1" />
  <metadata
     id="metadata2929">
    <rdf:RDF>
      <cc:Work
         rdf:about="">
        <dc:format>image/svg+xml</dc:format>
        <dc:type
           rdf:resource="http://purl.org/dc/dcmitype/StillImage" />
        <dc:title></dc:title>
      </cc:Work>
    </rdf:RDF>
  </metadata>
  <g
     inkscape:label="Layer 1"
     inkscape:groupmode="layer"
     id="layer1"
     transform="translate(-29.273358,-170.47785)">
    <g
       id="g2905"
       transform="matrix(0.26458333,0,0,0.26458333,-170.16721,258.40646)"
       style="image-rendering:auto">
      <rect
         y="-265.29767"
         x="753.47375"
         height="95.539024"
         width="363.41602"
         id="rect2612-4"
         style="opacity:1;fill:none;fill-opacity:1;stroke:#00070a;stroke-width:3.87652183;stroke-miterlimit:4;stroke-dasharray:none;stroke-dashoffset:0;stroke-opacity:1"
         transform="translate(2.2556391,9.0225564)" />
      <flowRoot
         transform="matrix(1.3078438,0,0,1.0202892,-83.793479,-322.8239)"
         style="font-style:normal;font-variant:normal;font-weight:normal;font-stretch:normal;font-size:26.66666603px;line-height:1.25;font-family:Keraleeyam;-inkscape-font-specification:Keraleeyam;letter-spacing:-0.86000001px;word-spacing:0px;fill:#000000;fill-opacity:1;stroke:none;stroke-width:0.37795275;stroke-miterlimit:4;stroke-dasharray:none"
         id="flowRoot2410-2-9"
         xml:space="preserve"><flowRegion
           style="font-style:normal;font-variant:normal;font-weight:normal;font-stretch:normal;font-family:Keraleeyam;-inkscape-font-specification:Keraleeyam;letter-spacing:-0.86000001px;stroke-width:0.37795275;stroke-miterlimit:4;stroke-dasharray:none"
           id="flowRegion2412-8-0"><rect
             style="font-style:normal;font-variant:normal;font-weight:normal;font-stretch:normal;font-family:Keraleeyam;-inkscape-font-specification:Keraleeyam;letter-spacing:-0.86000001px;stroke-width:0.37795275;stroke-miterlimit:4;stroke-dasharray:none"
             y="53.821957"
             x="674.99457"
             height="104.63054"
             width="350.89508"
             id="rect2414-8-9" /></flowRegion><flowPara
           style="font-style:normal;font-variant:normal;font-weight:normal;font-stretch:normal;font-size:85.33333588px;font-family:Keraleeyam;-inkscape-font-specification:Keraleeyam;letter-spacing:-0.86000001px"
           id="flowPara2416-9-8">NURUMI</flowPara></flowRoot>      <path
         inkscape:connector-curvature="0"
         style="fill:#000000;stroke-width:1.11937904"
         id="path4090-5-2-8"
         d="m 875.68693,-297.21524 c 13.9514,10.54442 28.3492,20.24901 28.957,39.8873 h 31.1845 c 1.977,-16.74335 13.2789,-32.03505 58.9038,-24.1789 -23.0333,-6.2831 -52.1593,-7.74679 -64.3488,17.86472 0.033,-25.10455 10.5448,-42.4376 27.7196,-54.826 -19.3457,11.39127 -32.4525,28.35222 -36.6294,53.28597 -5.4549,-13.42203 -10.7004,-23.54808 -15.8271,-31.49149 -12.6481,-19.59715 -24.5732,-25.90952 -37.137,-35.65496 20.1582,17.0145 40.8817,36.15228 43.5592,67.45436 -13.0002,-20.13291 -24.0118,-25.1497 -36.3818,-32.341 z"
         sodipodi:nodetypes="cccccccsccc" />
      <path
         inkscape:connector-curvature="0"
         style="fill:#000000;stroke-width:1.11937904"
         id="path4094-3-1-8-5"
         d="m 826.68283,-264.10411 c 21.5411,-14.87487 54.0186,-10.24719 56.924,6.77617 7.0124,0 14.0248,0 21.0371,0 0.357,-14.02693 -6.2669,-28.68575 28.7095,-39.57928 -21.3131,4.10193 -36.978,12.57036 -36.6293,33.41917 -15.8714,-27.75074 -46.6461,-21.84524 -51.9742,-4.46618 5.0395,-13.12767 32.3361,-20.37253 43.3118,2.61801 -10.5274,-6.44109 -32.3492,-20.79343 -61.3789,1.23211 z" />
      <path
         inkscape:connector-curvature="0"
         style="fill:#000000;stroke-width:1.11937904"
         id="path4098-2-7-8-8"
         d="m 779.6766,-318.37523 c 46.09663,3.52443 65.60753,30.84137 65.71003,60.98621 3.7949,0 8.5799,0 12.3748,0 5.7816,-13.53341 19.1659,-28.49927 56.5527,-29.72311 -28.0293,-2.3484 -42.8286,1.94294 -60.6364,21.09879 -15.032,-43.81636 -45.6003,-51.83851 -74.00111,-52.36189 z" />
      <path
         inkscape:connector-curvature="0"
         style="fill:#000000;stroke-width:1.11937904"
         id="rect4078-8-4-8-4"
         d="m 881.21663,-294.44411 c 16.0629,-2.84837 47.557,3.56285 54.3269,20.47895 2.8766,-32.15509 23.6407,-41.74191 42.3338,-49.00023 -25.1711,13.91615 -38.0779,25.37904 -34.6338,53.71204 11.5555,-15.91771 34.7133,-21.57196 56.3984,-13.75409 -32.1526,-6.03729 -50.7506,13.33082 -54.6253,25.6795 h -9.1882 c -5.1253,-11.17617 -3.9446,-32.38136 -54.6118,-37.11617 z" />
      <path
         inkscape:connector-curvature="0"
         style="fill:#000000;stroke-width:1.11937904"
         id="path4086-2-3-6-3"
         d="m 771.35551,-292.96423 c 22.27355,1.42685 52.40902,19.40682 56.41652,35.57521 6.1049,0 11.5097,0 17.6146,0 2.0766,-29.54647 9.2243,-49.85562 32.3795,-72.15693 -20.9787,14.87221 -35.5592,36.0983 -38.1019,63.07063 -6.2427,-19.68933 -15.7334,-36.74661 -41.82667,-40.34941 19.17672,4.08454 29.22667,16.52745 32.53677,39.19665 -15.86041,-17.67768 -34.75902,-25.66113 -59.01882,-25.33615 z" />
      <path
         inkscape:connector-curvature="0"
         style="fill:#000000;stroke-width:1.11937904"
         id="path4088-4-1-8-7"
         d="m 803.73729,-257.29746 h 8.75028 c 1.49044,-27.0249 13.79336,-47.76043 36.75116,-62.29825 -21.3416,8.86282 -33.86644,26.53265 -40.25131,49.00432 -4.35473,-17.14633 -13.86814,-34.39948 -32.20102,-51.83573 18.71183,22.77941 27.69635,38.91766 26.95089,65.12966 z" />
      <path
         inkscape:connector-curvature="0"
         style="fill:#000000;stroke-width:1.11937904"
         id="path4094-3-4-3-1"
         d="m 896.72413,-263.48805 c 21.541,-14.87488 54.0186,-10.2472 56.9239,6.77617 7.0124,0 14.0248,0 21.0372,0 0.357,-14.02694 -6.267,-28.68576 28.70937,-39.57928 -21.31297,4.10192 -36.97797,12.57035 -36.62927,33.41916 -15.8713,-27.75074 -46.6461,-21.84524 -51.9741,-4.46618 5.0395,-13.12767 32.3361,-20.37253 43.3117,2.61801 -10.5273,-6.44108 -32.3492,-20.79343 -61.3788,1.23212 z" />
      <path
         inkscape:connector-curvature="0"
         style="fill:#000000;stroke-width:1.11937904"
         id="path4096-9-6-8-3"
         d="m 822.36963,-319.14523 c 21.8392,13.16748 34.4161,30.9154 35.3918,61.75621 3.2999,0 6.6,0 9.8998,0 -0.081,-18.86842 3.7046,-38.90531 26.482,-64.68225 -12.7194,12.95239 -25.1786,26.43941 -31.4318,52.66978 -12.9722,-39.64826 -26.7482,-40.26838 -40.3418,-49.74374 z" />
      <path
         inkscape:connector-curvature="0"
         style="fill:#000000;stroke-width:1.11937904"
         id="path4098-2-9-3-8"
         d="m 801.95122,-318.37523 c 46.09661,3.52443 65.60761,30.84137 65.71001,60.98621 3.7949,0 8.5799,0 12.3749,0 5.7815,-13.53341 19.1658,-28.49927 56.5526,-29.72311 -28.0292,-2.3484 -42.8286,1.94294 -60.6364,21.09879 -15.032,-43.81636 -45.6003,-51.83851 -74.0011,-52.36189 z" />
      <path
         style="fill:none;stroke:#000000;stroke-width:1.23705733px;stroke-linecap:butt;stroke-linejoin:miter;stroke-opacity:1"
         d="M 803.73729,-257.29746 H 1077.9267"
         id="path2491-3-0"
         inkscape:connector-curvature="0" />
      <path
         inkscape:connector-curvature="0"
         style="fill:#000000;stroke-width:1.11937904"
         id="path4086-2-3-4-3-9"
         d="m 918.26863,-292.2871 c 22.2736,1.42686 52.4091,19.40682 56.4166,35.57522 6.1049,0 11.5097,0 17.6146,0 2.0766,-29.54648 9.22427,-49.85562 32.37947,-72.15693 -20.9787,14.8722 -35.55917,36.09829 -38.10187,63.07062 -6.2427,-19.68932 -15.7334,-36.74661 -41.8267,-40.34941 19.1767,4.08455 29.2267,16.52745 32.5368,39.19666 -15.8605,-17.67769 -34.7591,-25.66114 -59.0189,-25.33616 z" />
      <path
         inkscape:connector-curvature="0"
         style="fill:#000000;stroke-width:1.11937904"
         id="path4094-3-1-2-8-7"
         d="m 950.28083,-264.07362 c 21.541,-14.87488 54.01857,-10.2472 56.92387,6.77616 7.0124,0 14.0248,0 21.0372,0 0.3569,-14.02693 -6.267,-28.68575 28.7095,-39.57927 -21.3131,4.10192 -36.9781,12.57035 -36.6294,33.41916 -15.8713,-27.75074 -46.64607,-21.84523 -51.97407,-4.46618 5.0395,-13.12767 32.33607,-20.37253 43.31167,2.61801 -10.5273,-6.44108 -32.34917,-20.79342 -61.37877,1.23212 z" />
      <path
         inkscape:connector-curvature="0"
         style="fill:#000000;stroke-width:1.11937904"
         id="path4094-3-4-2-0-9"
         d="m 1070.261,-263.48805 c -21.5411,-14.87488 -54.0187,-10.2472 -56.924,6.77617 -7.0124,0 -14.02477,0 -21.03717,0 -0.357,-14.02694 6.267,-28.68576 -28.7094,-39.57928 21.313,4.10192 36.97797,12.57035 36.62927,33.41916 15.8713,-27.75074 46.6461,-21.84524 51.9741,-4.46618 -5.0395,-13.12767 -32.3361,-20.37253 -43.3117,2.61801 10.5273,-6.44108 32.3492,-20.79343 61.3789,1.23212 z" />
      <path
         inkscape:connector-curvature="0"
         style="fill:#000000;stroke-width:1.11937904"
         id="path4094-3-4-6-4-9"
         d="m 1000.2197,-264.10411 c 21.541,-14.87487 54.0186,-10.24719 56.924,6.77617 7.0124,0 14.0248,0 21.0371,0 0.357,-14.02693 -6.267,-28.68576 28.7094,-39.57927 -21.3129,4.10191 -36.9779,12.57035 -36.6292,33.41916 -15.8713,-27.75074 -46.6462,-21.84524 -51.9742,-4.46618 5.0395,-13.12767 32.3361,-20.37253 43.3117,2.61801 -10.5273,-6.44109 -32.3492,-20.79343 -61.3788,1.23211 z" />
      <path
         inkscape:connector-curvature="0"
         style="fill:#000000;stroke-width:1.11937904"
         id="path4086-2-3-4-4-7-3"
         d="m 983.11243,-292.90315 c 22.27357,1.42685 52.40907,19.40682 56.41657,35.57521 6.1049,0 11.5098,0 17.6147,0 2.0766,-29.54647 9.2242,-49.85562 32.3795,-72.15693 -20.9787,14.87221 -35.5592,36.0983 -38.1019,63.07063 -6.2428,-19.68933 -15.7335,-36.74661 -41.8268,-40.34941 19.1767,4.08454 29.2267,16.52745 32.5368,39.19665 -15.8605,-17.67768 -34.7591,-25.66113 -59.01887,-25.33615 z" />
      <path
         inkscape:connector-curvature="0"
         style="fill:#000000;stroke-width:1.11937904"
         id="path4096-9-6-1-6-2"
         d="m 994.23733,-319.08415 c 21.83917,13.16748 34.41617,30.91541 35.39187,61.75621 3.2999,0 6.5999,0 9.8998,0 -0.081,-18.86842 3.7045,-38.90531 26.482,-64.68226 -12.7194,12.9524 -25.1786,26.43942 -31.4319,52.66979 -12.9721,-39.64826 -26.7481,-40.26838 -40.34177,-49.74374 z" />
      <text
         id="text2691-3"
         y="-183.05328"
         x="806.67792"
         style="font-style:normal;font-weight:normal;font-size:26.66666603px;line-height:1.25;font-family:sans-serif;letter-spacing:0px;word-spacing:0px;fill:#000000;fill-opacity:1;stroke:none;stroke-width:0.1;stroke-miterlimit:4;stroke-dasharray:none"
         xml:space="preserve"
         transform="translate(2.2556391,9.0225564)"><tspan
           style="font-style:normal;font-variant:normal;font-weight:bold;font-stretch:normal;font-family:Garuda;-inkscape-font-specification:'Garuda Bold';fill:#f9f9f9;fill-opacity:1"
           y="-183.05328"
           x="806.67792"
           id="tspan2689-7"
           sodipodi:role="line">GreenHouseController</tspan></text>
      <rect
         y="-200.11095"
         x="802.58038"
         height="39.580341"
         width="275.63705"
         id="rect2693-4"
         style="opacity:1;fill:#000000;fill-opacity:1;stroke:#00070a;stroke-width:0.07510273;stroke-miterlimit:4;stroke-dasharray:none;stroke-dashoffset:0;stroke-opacity:1" />
      <text
         transform="scale(0.73762291,1.3557063)"
         id="text2839"
         y="-120.22855"
         x="1118.4125"
         style="font-style:normal;font-weight:normal;font-size:31.98828888px;line-height:1.25;font-family:sans-serif;letter-spacing:0px;word-spacing:0px;fill:#ffffff;fill-opacity:1;stroke:none;stroke-width:1.19956076"
         xml:space="preserve"><tspan
           style="font-style:normal;font-variant:normal;font-weight:bold;font-stretch:normal;font-family:'Ubuntu Mono';-inkscape-font-specification:'Ubuntu Mono Bold';stroke-width:1.19956076"
           y="-120.22855"
           x="1118.4125"
           id="tspan2837"
           sodipodi:role="line">GreenHouseController</tspan></text>
    </g>
  </g>
</svg>
